<svg width="333" height="198" viewBox="0 0 333 198" fill="none" xmlns="http://www.w3.org/2000/svg">
<rect width="333" height="198" fill="#549BDC"/>
<path d="M86.1279 63.8398V108H76.3359V63.8398H86.1279ZM99.4399 63.8398V71.5198H63.0879V63.8398H99.4399Z" fill="#fff"/>
<path d="M114.004 63.6478C116.393 63.6478 118.804 63.6691 121.236 63.7118C123.668 63.7118 126.057 63.7545 128.404 63.8398C130.751 63.9251 132.948 64.0745 134.996 64.2878L134.548 71.3918H117.588C116.521 71.3918 115.711 71.6691 115.156 72.2238C114.644 72.7785 114.388 73.5891 114.388 74.6558V97.1838C114.388 98.2505 114.644 99.0611 115.156 99.6158C115.711 100.17 116.521 100.448 117.588 100.448H134.548L134.996 107.552C132.948 107.722 130.751 107.872 128.404 108C126.057 108.085 123.668 108.128 121.236 108.128C118.804 108.17 116.393 108.192 114.004 108.192C111.188 108.192 108.905 107.381 107.156 105.76C105.449 104.096 104.596 101.941 104.596 99.2958V72.5438C104.596 69.8558 105.449 67.7011 107.156 66.0798C108.905 64.4585 111.188 63.6478 114.004 63.6478ZM105.748 81.5678H132.18V88.4798H105.748V81.5678Z" fill="#fff"/>
<path d="M156.508 63.0078C158.684 63.0078 161.052 63.1358 163.612 63.3918C166.172 63.6051 168.668 64.0745 171.1 64.7998L170.46 71.2638C168.583 71.2211 166.385 71.1785 163.868 71.1358C161.351 71.0931 158.876 71.0718 156.444 71.0718C155.249 71.0718 154.225 71.1145 153.372 71.1998C152.561 71.2425 151.9 71.4131 151.388 71.7118C150.876 71.9678 150.513 72.3731 150.3 72.9278C150.087 73.4825 149.98 74.2505 149.98 75.2318C149.98 76.7251 150.321 77.8131 151.004 78.4958C151.729 79.1785 152.945 79.7971 154.652 80.3518L163.164 83.1038C166.705 84.2985 169.159 85.9198 170.524 87.9678C171.889 90.0158 172.572 92.7038 172.572 96.0318C172.572 98.5491 172.273 100.64 171.676 102.304C171.079 103.968 170.14 105.269 168.86 106.208C167.58 107.146 165.895 107.808 163.804 108.192C161.713 108.618 159.153 108.832 156.124 108.832C154.673 108.832 152.604 108.725 149.916 108.512C147.228 108.341 144.156 107.872 140.7 107.104L141.34 100.192C143.857 100.234 146.033 100.298 147.868 100.384C149.745 100.426 151.345 100.469 152.668 100.512C153.991 100.512 155.143 100.512 156.124 100.512C157.831 100.512 159.153 100.405 160.092 100.192C161.073 99.9785 161.756 99.5518 162.14 98.9118C162.524 98.2718 162.716 97.3545 162.716 96.1598C162.716 95.1358 162.567 94.3251 162.268 93.7278C162.012 93.0878 161.564 92.5971 160.924 92.2558C160.327 91.8718 159.495 91.5305 158.428 91.2318L149.468 88.1598C146.097 86.9225 143.708 85.3011 142.3 83.2958C140.892 81.2905 140.188 78.6451 140.188 75.3598C140.188 72.7998 140.487 70.7305 141.084 69.1518C141.724 67.5305 142.684 66.2718 143.964 65.3758C145.287 64.4798 146.972 63.8611 149.02 63.5198C151.111 63.1785 153.607 63.0078 156.508 63.0078Z" fill="#fff"/>
<path d="M234.848 63.8398C235.659 63.8398 236.363 64.0745 236.96 64.5438C237.6 65.0131 238.027 65.6318 238.24 66.3998L251.04 108H241.056L232.032 75.5518C231.862 74.8265 231.691 74.1011 231.52 73.3758C231.35 72.6078 231.2 71.8825 231.072 71.1998H229.344C229.216 71.8825 229.067 72.6078 228.896 73.3758C228.768 74.1011 228.598 74.8265 228.384 75.5518L219.36 108H209.312L222.176 66.3998C222.39 65.6318 222.795 65.0131 223.392 64.5438C224.032 64.0745 224.758 63.8398 225.568 63.8398H234.848ZM241.632 88.9918V96.3518H218.72V88.9918H241.632Z" fill="#fff"/>
<path d="M106.86 155.916C107.495 155.916 108.176 155.935 108.904 155.972C109.651 156.009 110.379 156.065 111.088 156.14C111.797 156.196 112.432 156.28 112.992 156.392L112.768 158.604C111.872 158.585 110.976 158.567 110.08 158.548C109.203 158.511 108.335 158.492 107.476 158.492C106.711 158.492 106.104 158.511 105.656 158.548C105.227 158.585 104.919 158.697 104.732 158.884C104.564 159.071 104.48 159.388 104.48 159.836C104.48 160.377 104.629 160.741 104.928 160.928C105.227 161.096 105.712 161.264 106.384 161.432L110.136 162.3C111.256 162.58 112.087 163.009 112.628 163.588C113.169 164.148 113.44 165.016 113.44 166.192C113.44 167.331 113.225 168.199 112.796 168.796C112.385 169.375 111.723 169.776 110.808 170C109.912 170.205 108.764 170.308 107.364 170.308C106.823 170.308 106.02 170.28 104.956 170.224C103.892 170.187 102.725 170.065 101.456 169.86L101.68 167.648C102.053 167.648 102.492 167.657 102.996 167.676C103.519 167.695 104.069 167.704 104.648 167.704C105.245 167.704 105.852 167.704 106.468 167.704C107.457 167.704 108.213 167.676 108.736 167.62C109.277 167.545 109.651 167.405 109.856 167.2C110.061 166.976 110.164 166.659 110.164 166.248C110.164 165.725 109.987 165.38 109.632 165.212C109.296 165.025 108.792 164.848 108.12 164.68L104.452 163.784C103.612 163.56 102.959 163.28 102.492 162.944C102.025 162.589 101.689 162.16 101.484 161.656C101.279 161.133 101.176 160.499 101.176 159.752C101.176 158.744 101.363 157.96 101.736 157.4C102.128 156.84 102.735 156.448 103.556 156.224C104.396 156 105.497 155.897 106.86 155.916ZM123.422 155.916C124.523 155.916 125.447 156.065 126.194 156.364C126.959 156.644 127.538 157.129 127.93 157.82C128.322 158.511 128.518 159.463 128.518 160.676V170H125.83L125.354 167.032L125.102 166.64V160.648C125.102 159.92 124.934 159.397 124.598 159.08C124.262 158.744 123.618 158.576 122.666 158.576C121.956 158.576 121.06 158.604 119.978 158.66C118.914 158.716 117.84 158.791 116.758 158.884L116.45 156.56C117.103 156.429 117.84 156.317 118.662 156.224C119.483 156.131 120.314 156.056 121.154 156C121.994 155.944 122.75 155.916 123.422 155.916ZM127.062 161.544L127.034 163.644H120.734C120.174 163.663 119.772 163.812 119.53 164.092C119.287 164.372 119.166 164.755 119.166 165.24V165.996C119.166 166.556 119.315 166.985 119.614 167.284C119.912 167.564 120.379 167.704 121.014 167.704C121.518 167.704 122.078 167.601 122.694 167.396C123.31 167.191 123.916 166.892 124.514 166.5C125.13 166.108 125.68 165.641 126.166 165.1V166.864C125.979 167.144 125.708 167.48 125.354 167.872C124.999 168.245 124.56 168.619 124.038 168.992C123.534 169.365 122.946 169.673 122.274 169.916C121.62 170.159 120.892 170.28 120.09 170.28C119.268 170.28 118.531 170.14 117.878 169.86C117.224 169.561 116.711 169.132 116.338 168.572C115.964 167.993 115.778 167.284 115.778 166.444V164.988C115.778 163.905 116.132 163.065 116.842 162.468C117.57 161.852 118.559 161.544 119.81 161.544H127.062ZM149.337 155.916C150.55 155.916 151.474 156.243 152.109 156.896C152.762 157.531 153.089 158.464 153.089 159.696V170H149.729V160.732C149.71 160.041 149.57 159.547 149.309 159.248C149.048 158.931 148.59 158.772 147.937 158.772C147.545 158.772 147.162 158.837 146.789 158.968C146.434 159.08 146.033 159.267 145.585 159.528C145.137 159.789 144.596 160.135 143.961 160.564L143.765 158.52C144.717 157.643 145.632 156.989 146.509 156.56C147.405 156.131 148.348 155.916 149.337 155.916ZM134.917 156.252L135.253 158.94L135.589 159.332V170H132.201V156.252H134.917ZM140.573 155.916C141.768 155.916 142.682 156.233 143.317 156.868C143.952 157.503 144.269 158.445 144.269 159.696V170H141.021V160.732C141.021 160.004 140.872 159.5 140.573 159.22C140.274 158.921 139.826 158.772 139.229 158.772C138.856 158.772 138.482 158.828 138.109 158.94C137.736 159.052 137.325 159.239 136.877 159.5C136.429 159.761 135.869 160.116 135.197 160.564L135.001 158.52C135.934 157.643 136.849 156.989 137.745 156.56C138.641 156.131 139.584 155.916 140.573 155.916ZM163.026 155.916C164.706 155.916 166.041 156.149 167.03 156.616C168.038 157.083 168.757 157.848 169.186 158.912C169.634 159.976 169.858 161.385 169.858 163.14C169.858 164.895 169.634 166.304 169.186 167.368C168.757 168.413 168.038 169.179 167.03 169.664C166.041 170.131 164.706 170.364 163.026 170.364C161.384 170.364 160.058 170.131 159.05 169.664C158.061 169.179 157.342 168.413 156.894 167.368C156.446 166.304 156.222 164.895 156.222 163.14C156.222 161.385 156.446 159.976 156.894 158.912C157.342 157.848 158.061 157.083 159.05 156.616C160.058 156.149 161.384 155.916 163.026 155.916ZM163.026 158.492C162.205 158.492 161.552 158.632 161.066 158.912C160.6 159.173 160.264 159.64 160.058 160.312C159.853 160.984 159.75 161.927 159.75 163.14C159.75 164.353 159.853 165.296 160.058 165.968C160.264 166.64 160.6 167.107 161.066 167.368C161.552 167.629 162.205 167.76 163.026 167.76C163.866 167.76 164.529 167.629 165.014 167.368C165.5 167.107 165.836 166.64 166.022 165.968C166.228 165.296 166.33 164.353 166.33 163.14C166.33 161.927 166.228 160.984 166.022 160.312C165.836 159.64 165.5 159.173 165.014 158.912C164.529 158.632 163.866 158.492 163.026 158.492ZM185.484 156.252L181.564 161.152C181.415 161.376 181.228 161.6 181.004 161.824C180.78 162.029 180.584 162.188 180.416 162.3V162.356C180.584 162.468 180.78 162.655 181.004 162.916C181.228 163.159 181.415 163.411 181.564 163.672L185.932 170H182.096L177.084 162.216L181.648 156.252H185.484ZM176.44 150.4L176.468 158.772C176.468 159.388 176.431 159.976 176.356 160.536C176.3 161.096 176.216 161.665 176.104 162.244C176.198 162.785 176.272 163.345 176.328 163.924C176.403 164.503 176.44 165.044 176.44 165.548V170H173.052V150.4H176.44ZM178.54 161.208V163.392H175.348V161.208H178.54ZM195.035 155.916C196.136 155.916 197.06 156.065 197.807 156.364C198.572 156.644 199.151 157.129 199.543 157.82C199.935 158.511 200.131 159.463 200.131 160.676V170H197.443L196.967 167.032L196.715 166.64V160.648C196.715 159.92 196.547 159.397 196.211 159.08C195.875 158.744 195.231 158.576 194.279 158.576C193.57 158.576 192.674 158.604 191.591 158.66C190.527 158.716 189.454 158.791 188.371 158.884L188.063 156.56C188.716 156.429 189.454 156.317 190.275 156.224C191.096 156.131 191.927 156.056 192.767 156C193.607 155.944 194.363 155.916 195.035 155.916ZM198.675 161.544L198.647 163.644H192.347C191.787 163.663 191.386 163.812 191.143 164.092C190.9 164.372 190.779 164.755 190.779 165.24V165.996C190.779 166.556 190.928 166.985 191.227 167.284C191.526 167.564 191.992 167.704 192.627 167.704C193.131 167.704 193.691 167.601 194.307 167.396C194.923 167.191 195.53 166.892 196.127 166.5C196.743 166.108 197.294 165.641 197.779 165.1V166.864C197.592 167.144 197.322 167.48 196.967 167.872C196.612 168.245 196.174 168.619 195.651 168.992C195.147 169.365 194.559 169.673 193.887 169.916C193.234 170.159 192.506 170.28 191.703 170.28C190.882 170.28 190.144 170.14 189.491 169.86C188.838 169.561 188.324 169.132 187.951 168.572C187.578 167.993 187.391 167.284 187.391 166.444V164.988C187.391 163.905 187.746 163.065 188.455 162.468C189.183 161.852 190.172 161.544 191.423 161.544H198.675ZM208.35 152.332V165.856C208.35 166.435 208.471 166.845 208.714 167.088C208.975 167.331 209.414 167.452 210.03 167.452H211.934L212.298 169.832C211.981 169.925 211.598 170.009 211.15 170.084C210.702 170.159 210.263 170.205 209.834 170.224C209.405 170.261 209.041 170.28 208.742 170.28C207.547 170.28 206.614 169.963 205.942 169.328C205.289 168.675 204.962 167.741 204.962 166.528V152.332H208.35ZM212.438 156.252V158.604H202.526V156.392L205.214 156.252H212.438Z" fill="white"/>
<line x1="62" y1="128.5" x2="252" y2="128.5" stroke="white"/>
<path fill-rule="evenodd" clip-rule="evenodd" d="M291.461 112.862L278.141 32.936C277.866 31.2777 276.429 30.0625 274.75 30.0625H261C259.1 30.0625 257.563 31.6 257.563 33.5C257.563 35.4 259.1 36.9375 261 36.9375H271.836L282.151 98.8125H276.375C269.822 98.8125 263.927 102.451 261 108.313L254.85 120.612C253.091 124.131 249.56 126.312 245.625 126.312H61.5002C59.9035 118.475 52.9627 112.562 44.6602 112.562C35.1802 112.562 27.4727 120.27 27.4727 129.75C27.4727 139.23 35.1802 146.938 44.6602 146.938C52.9627 146.938 59.9035 141.025 61.5002 133.188H245.625C252.178 133.188 258.073 129.549 261 123.687L267.15 111.388C268.909 107.869 272.441 105.688 276.375 105.688H283.297L284.528 113.072C276.967 114.875 271.313 121.643 271.313 129.75C271.313 139.23 279.02 146.938 288.5 146.938C297.98 146.938 305.687 139.23 305.687 129.75C305.687 121.284 299.528 114.274 291.461 112.862ZM34.3477 129.75C34.3477 135.437 38.9735 140.062 44.6602 140.062C50.3468 140.062 54.9727 135.437 54.9727 129.75C54.9727 124.063 50.3468 119.438 44.6602 119.438C38.9735 119.438 34.3477 124.063 34.3477 129.75ZM278.188 129.75C278.188 135.437 282.813 140.062 288.5 140.062C294.187 140.062 298.812 135.437 298.812 129.75C298.812 124.063 294.187 119.438 288.5 119.438C282.813 119.438 278.188 124.063 278.188 129.75Z" fill="#fff"/>
<path d="M185.836 108.616L194.4 94.343C194.709 93.8278 194.816 93.2163 194.701 92.6267C194.585 92.037 194.255 91.5111 193.775 91.1506L177 78.5701L198.796 62.9999L190.235 77.2726C189.926 77.7878 189.819 78.3993 189.934 78.9889C190.05 79.5786 190.38 80.1045 190.861 80.4649L207.635 93.0455L185.836 108.616Z" fill="#FFBA00"/>
</svg>
