<?xml version="1.0" standalone="no"?>
<!DOCTYPE svg PUBLIC "-//W3C//DTD SVG 20010904//EN"
 "http://www.w3.org/TR/2001/REC-SVG-20010904/DTD/svg10.dtd">
<svg version="1.0" xmlns="http://www.w3.org/2000/svg"
 width="1332.000000pt" height="1332.000000pt" viewBox="0 0 1332.000000 1332.000000"
 preserveAspectRatio="xMidYMid meet">
<metadata>
Created by potrace 1.14, written by Peter Selinger 2001-2017
</metadata>
<g transform="translate(0.000000,1332.000000) scale(0.100000,-0.100000)"
fill="#000000" stroke="none">
<path d="M0 6660 l0 -3960 6660 0 6660 0 0 3960 0 3960 -6660 0 -6660 0 0
-3960z m11061 2737 c19 -12 42 -38 52 -57 11 -23 106 -573 277 -1605 144 -863
263 -1582 266 -1597 5 -23 15 -29 87 -52 113 -35 199 -88 287 -177 82 -81 143
-184 176 -294 26 -84 26 -286 0 -370 -56 -187 -188 -346 -356 -429 -206 -101
-414 -101 -620 0 -77 38 -110 62 -176 128 -66 66 -89 99 -127 176 -98 199
-102 402 -13 595 79 171 230 308 403 366 49 16 63 25 59 37 -3 10 -12 62 -21
117 -8 55 -18 112 -21 128 l-6 27 -163 0 c-134 0 -174 -4 -227 -20 -77 -24
-146 -67 -194 -123 -19 -23 -102 -175 -184 -337 -81 -163 -168 -322 -193 -355
-80 -106 -195 -186 -332 -233 l-80 -27 -3745 -3 -3745 -2 -22 -70 c-66 -208
-234 -376 -448 -447 -70 -23 -96 -27 -210 -27 -114 0 -140 4 -211 27 -159 53
-321 190 -398 336 -103 196 -102 446 1 644 49 93 182 230 273 280 114 62 197
82 340 81 107 0 136 -4 205 -27 214 -71 382 -238 447 -444 l23 -73 3697 0
c2699 0 3711 3 3750 11 77 17 144 54 203 113 44 43 74 96 203 352 83 165 171
327 196 360 80 106 195 187 331 231 71 23 100 27 258 31 97 2 177 7 177 11 0
10 -398 2399 -406 2434 l-6 27 -231 0 c-214 0 -235 2 -265 20 -42 26 -72 76
-72 120 0 44 30 94 72 120 31 19 51 20 344 20 307 0 311 0 345 -23z m-4546
-1307 c106 -10 301 -45 322 -58 8 -5 7 -44 -3 -127 -7 -66 -13 -123 -14 -127
0 -5 -159 -8 -352 -9 -381 0 -406 -3 -442 -52 -30 -40 -30 -157 0 -207 30 -51
74 -72 319 -151 267 -87 350 -126 425 -199 96 -93 133 -203 133 -390 -1 -231
-63 -365 -204 -434 -175 -85 -576 -95 -958 -24 l-113 21 7 101 c4 55 10 118
13 140 l7 39 185 -4 c393 -8 532 -5 583 15 66 25 80 55 75 162 -3 71 -6 86
-28 109 -36 39 -61 50 -303 131 -120 41 -254 92 -297 115 -134 69 -205 154
-245 293 -26 88 -17 338 14 417 56 144 172 213 406 242 66 9 367 6 470 -3z
m-1231 -30 c60 -5 111 -11 113 -14 3 -2 1 -67 -4 -143 l-8 -138 -373 -5 -374
-5 -29 -33 -29 -32 0 -165 0 -165 355 0 355 0 0 -140 0 -140 -355 0 -355 0 0
-195 c0 -207 6 -242 49 -265 13 -6 153 -10 385 -10 201 0 367 -3 369 -7 3 -5
6 -71 8 -148 l4 -140 -85 -8 c-47 -5 -260 -9 -475 -10 l-390 -2 -55 26 c-106
49 -169 123 -196 228 -12 50 -14 150 -12 663 l3 603 26 55 c49 105 132 170
249 197 61 14 627 9 824 -7z m2480 -267 c-175 -291 -190 -325 -154 -368 8 -10
167 -133 354 -273 l338 -254 -37 -26 c-21 -15 -212 -151 -424 -303 -212 -152
-387 -276 -389 -274 -1 1 74 130 168 286 180 301 189 322 150 371 -10 14 -168
137 -350 273 -272 204 -329 251 -318 261 22 22 823 592 826 589 2 -2 -72 -129
-164 -282z m-3784 122 l0 -155 -265 0 -265 0 0 -730 0 -730 -200 0 -200 0 0
730 0 730 -265 0 -265 0 0 155 0 155 730 0 730 0 0 -155z m5480 136 c19 -10
43 -32 53 -48 15 -26 527 -1673 527 -1695 0 -4 -90 -8 -200 -8 l-199 0 -17 58
c-10 31 -38 134 -64 227 l-47 170 -304 3 -305 2 -12 -47 c-7 -27 -36 -130 -64
-230 l-51 -183 -205 0 c-176 0 -203 2 -198 15 3 8 30 95 60 192 30 98 92 302
139 453 47 151 134 430 192 620 59 190 111 359 116 376 5 18 19 44 31 59 39
49 65 54 298 55 191 0 219 -2 250 -19z m-2400 -3661 l0 -220 24 0 c20 0 41 22
101 100 l77 100 80 0 c63 0 78 -3 71 -12 -54 -71 -176 -219 -184 -223 -5 -4 6
-25 24 -48 19 -23 69 -93 111 -155 l78 -113 -83 3 -83 3 -80 127 c-71 112 -84
128 -108 128 l-28 0 0 -130 0 -130 -70 0 -70 0 0 395 0 395 70 0 70 0 0 -220z
m1278 58 l3 -78 79 0 80 0 0 -50 0 -50 -80 0 -80 0 0 -159 c0 -182 0 -181 83
-189 59 -5 67 -13 67 -64 0 -36 -1 -37 -45 -44 -25 -3 -75 -4 -110 -2 -58 3
-69 8 -98 36 l-32 32 -3 195 -3 195 -50 0 -49 0 0 49 0 50 48 3 47 3 3 78 3
78 67 -3 67 -3 3 -77z m-3865 -75 c46 -5 47 -6 47 -42 0 -20 -4 -41 -8 -47 -4
-7 -60 -10 -160 -10 -161 1 -171 -2 -172 -46 0 -35 35 -54 142 -77 126 -28
177 -54 200 -101 35 -69 15 -170 -42 -212 -45 -33 -203 -40 -418 -18 -2 0 -2
21 0 48 l3 47 154 3 c93 1 160 7 168 13 19 16 16 67 -4 78 -10 5 -71 23 -135
39 -65 17 -129 39 -143 48 -37 24 -59 71 -59 129 -2 92 34 135 126 155 42 9
207 5 301 -7z m586 -11 c19 -9 44 -30 55 -45 20 -26 21 -44 24 -263 l3 -234
-55 0 -56 0 -6 39 -6 39 -42 -30 c-61 -44 -101 -58 -170 -58 -74 0 -122 22
-153 69 -19 28 -23 48 -23 108 0 144 40 173 240 173 l130 0 0 33 c0 18 -7 43
-16 56 -17 23 -19 23 -165 19 -163 -4 -159 -6 -159 58 0 39 2 40 135 53 115
12 220 5 264 -17z m614 17 c38 -10 66 -32 84 -63 8 -15 15 -13 61 18 129 86
270 63 301 -50 6 -22 11 -131 11 -251 l0 -213 -69 0 -70 0 -3 205 c-3 179 -5
206 -21 222 -27 27 -89 21 -145 -14 l-47 -29 -3 -192 -2 -192 -65 0 -65 0 0
199 c0 180 -2 201 -19 222 -26 32 -85 30 -145 -5 l-46 -27 0 -195 0 -195 -72
3 -73 3 0 270 0 270 56 3 57 3 6 -36 c4 -19 9 -35 12 -35 3 0 21 12 40 27 37
28 124 62 159 63 11 0 37 -5 58 -11z m982 -10 c54 -15 108 -73 126 -135 17
-62 17 -226 0 -279 -20 -59 -58 -105 -106 -126 -64 -28 -176 -35 -253 -15 -80
20 -107 38 -139 94 -23 39 -27 59 -31 153 -9 210 40 293 187 319 54 10 159 5
216 -11z m1215 10 c68 -14 114 -55 129 -113 6 -26 11 -131 11 -245 l0 -201
-60 0 c-57 0 -60 1 -60 24 0 52 -9 58 -44 29 -51 -43 -105 -63 -174 -63 -128
0 -188 66 -180 196 5 73 26 109 79 136 27 14 60 18 161 18 72 0 129 4 133 10
3 5 1 28 -5 50 -14 51 -25 54 -196 48 -92 -3 -134 -1 -134 6 0 6 -3 28 -6 48
-6 36 -6 37 31 44 41 7 170 20 227 23 20 0 60 -4 88 -10z"/>
<path d="M1680 5825 c-116 -33 -211 -113 -263 -223 -30 -62 -32 -75 -32 -172
0 -97 2 -110 32 -172 92 -196 312 -284 516 -208 291 109 351 506 106 700 -96
76 -244 107 -359 75z"/>
<path d="M11440 5826 c-160 -45 -276 -172 -303 -332 -44 -256 180 -495 440
-471 170 16 314 141 359 312 77 288 -209 571 -496 491z"/>
<path d="M9175 7758 c-2 -7 -9 -38 -15 -68 -7 -30 -41 -161 -77 -290 -74 -266
-93 -334 -93 -337 0 -2 97 -3 215 -3 182 0 215 2 215 15 0 8 -32 128 -71 267
-39 139 -77 282 -85 318 -8 36 -17 75 -19 88 -4 17 -12 22 -36 22 -16 0 -31
-6 -34 -12z"/>
<path d="M4786 4054 c-10 -9 -16 -33 -16 -59 0 -26 6 -50 16 -59 25 -25 101
-20 162 10 l52 26 0 49 0 49 -99 0 c-77 0 -103 -4 -115 -16z"/>
<path d="M6474 4274 c-12 -3 -32 -16 -44 -29 -48 -52 -49 -256 0 -305 42 -42
165 -32 196 15 22 33 30 168 14 234 -8 35 -20 57 -36 68 -25 16 -93 25 -130
17z"/>
<path d="M7650 4055 c-17 -21 -17 -99 0 -119 21 -27 106 -20 165 12 49 26 50
28 50 72 l0 45 -101 3 c-82 2 -103 0 -114 -13z"/>
</g>
</svg>
