<svg width="20" height="20" viewBox="0 0 20 20" fill="none" xmlns="http://www.w3.org/2000/svg">
<path d="M5.41658 10.6875C4.53063 10.6875 3.81242 11.4057 3.81242 12.2917C3.81242 13.1776 4.53063 13.8958 5.41658 13.8958C6.30254 13.8958 7.02075 13.1776 7.02075 12.2917C7.02075 11.4057 6.30254 10.6875 5.41658 10.6875ZM2.43742 12.2917C2.43742 10.6463 3.77124 9.31249 5.41658 9.31249C7.06193 9.31249 8.39575 10.6463 8.39575 12.2917C8.39575 13.937 7.06193 15.2708 5.41658 15.2708C3.77124 15.2708 2.43742 13.937 2.43742 12.2917Z" fill="white"/>
<path d="M14.5833 10.6875C13.6973 10.6875 12.9791 11.4057 12.9791 12.2917C12.9791 13.1776 13.6973 13.8958 14.5833 13.8958C15.4692 13.8958 16.1874 13.1776 16.1874 12.2917C16.1874 11.4057 15.4692 10.6875 14.5833 10.6875ZM11.6041 12.2917C11.6041 10.6463 12.9379 9.31249 14.5833 9.31249C16.2286 9.31249 17.5624 10.6463 17.5624 12.2917C17.5624 13.937 16.2286 15.2708 14.5833 15.2708C12.9379 15.2708 11.6041 13.937 11.6041 12.2917Z" fill="white"/>
<path d="M9.99992 1.52083C9.11396 1.52083 8.39575 2.23904 8.39575 3.12499C8.39575 4.01095 9.11396 4.72916 9.99992 4.72916C10.8859 4.72916 11.6041 4.01095 11.6041 3.12499C11.6041 2.23904 10.8859 1.52083 9.99992 1.52083ZM7.02075 3.12499C7.02075 1.47965 8.35457 0.145828 9.99992 0.145828C11.6453 0.145828 12.9791 1.47965 12.9791 3.12499C12.9791 4.77034 11.6453 6.10416 9.99992 6.10416C8.35457 6.10416 7.02075 4.77034 7.02075 3.12499Z" fill="white"/>
<path d="M0.145752 19.1667C0.145752 16.2557 2.50558 13.8958 5.41658 13.8958C8.32756 13.8958 10.6874 16.2557 10.6874 19.1667C10.6874 19.5464 10.3796 19.8542 9.99992 19.8542C9.62022 19.8542 9.31242 19.5464 9.31242 19.1667C9.31242 17.0151 7.56817 15.2708 5.41658 15.2708C3.26498 15.2708 1.52075 17.0151 1.52075 19.1667C1.52075 19.5464 1.21295 19.8542 0.833252 19.8542C0.453556 19.8542 0.145752 19.5464 0.145752 19.1667Z" fill="white"/>
<path d="M9.31242 19.1667C9.31242 16.2557 11.6723 13.8958 14.5833 13.8958C17.4942 13.8958 19.8541 16.2557 19.8541 19.1667C19.8541 19.5464 19.5463 19.8542 19.1666 19.8542C18.7869 19.8542 18.4791 19.5464 18.4791 19.1667C18.4791 17.0151 16.7348 15.2708 14.5833 15.2708C12.4317 15.2708 10.6874 17.0151 10.6874 19.1667C10.6874 19.5464 10.3796 19.8542 9.99992 19.8542C9.62022 19.8542 9.31242 19.5464 9.31242 19.1667Z" fill="white"/>
<path d="M4.72908 9.99999C4.72908 7.08902 7.08894 4.72916 9.99992 4.72916C12.9109 4.72916 15.2708 7.08902 15.2708 9.99999C15.2708 10.3797 14.9629 10.6875 14.5833 10.6875C14.2036 10.6875 13.8958 10.3797 13.8958 9.99999C13.8958 7.84841 12.1515 6.10416 9.99992 6.10416C7.84833 6.10416 6.10408 7.84841 6.10408 9.99999C6.10408 10.3797 5.79628 10.6875 5.41658 10.6875C5.03689 10.6875 4.72908 10.3797 4.72908 9.99999Z" fill="white"/>
</svg>
