<svg width="29" height="27" viewBox="0 0 29 27" fill="none" xmlns="http://www.w3.org/2000/svg">
<path d="M11.6667 27C12.9554 27 14 25.9553 14 24.6667C14 23.378 12.9554 22.3333 11.6667 22.3333C10.378 22.3333 9.33336 23.378 9.33336 24.6667C9.33336 25.9553 10.378 27 11.6667 27Z" fill="#272727"/>
<path d="M23 27C24.2887 27 25.3334 25.9553 25.3334 24.6667C25.3334 23.378 24.2887 22.3333 23 22.3333C21.7114 22.3333 20.6667 23.378 20.6667 24.6667C20.6667 25.9553 21.7114 27 23 27Z" fill="#272727"/>
<path d="M0.501308 0.445284C0.80766 -0.0142447 1.42853 -0.138419 1.88806 0.167934L7.88806 4.16793C8.10122 4.31004 8.25171 4.52854 8.30849 4.77836L11.4649 18.6667H23.2518L25.9969 9.33332H14.6667C14.1144 9.33332 13.6667 8.8856 13.6667 8.33332C13.6667 7.78103 14.1144 7.33332 14.6667 7.33332H27.3334C27.6485 7.33332 27.9452 7.48188 28.134 7.73422C28.3228 7.98656 28.3817 8.31314 28.2927 8.61548L24.9594 19.9488C24.8342 20.3744 24.4436 20.6667 24 20.6667H10.6667C10.1998 20.6667 9.79503 20.3436 9.69156 19.8883L6.44666 5.6107L0.778658 1.83203C0.319129 1.52568 0.194955 0.904813 0.501308 0.445284Z" fill="#272727"/>
<path d="M13.6667 14.3333C13.6667 13.781 14.1144 13.3333 14.6667 13.3333H25.3334C25.8856 13.3333 26.3334 13.781 26.3334 14.3333C26.3334 14.8856 25.8856 15.3333 25.3334 15.3333H14.6667C14.1144 15.3333 13.6667 14.8856 13.6667 14.3333Z" fill="#272727"/>
</svg>
