<svg width="18" height="18" viewBox="0 0 18 18" fill="none" xmlns="http://www.w3.org/2000/svg">
<path d="M8.54167 0.0625C8.92136 0.0625 9.22917 0.370304 9.22917 0.75V7.16667C9.22917 7.54636 8.92136 7.85417 8.54167 7.85417H0.75C0.370305 7.85417 0.0625 7.54636 0.0625 7.16667V0.75C0.0625 0.370304 0.370305 0.0625 0.75 0.0625H8.54167ZM7.85417 1.4375H1.4375V6.47917H7.85417V1.4375Z" fill="white"/>
<path d="M17.25 10.1458C17.6297 10.1458 17.9375 10.4536 17.9375 10.8333V17.25C17.9375 17.6297 17.6297 17.9375 17.25 17.9375H9.45833C9.07864 17.9375 8.77083 17.6297 8.77083 17.25V10.8333C8.77083 10.4536 9.07864 10.1458 9.45833 10.1458H17.25ZM16.5625 11.5208H10.1458V16.5625H16.5625V11.5208Z" fill="white"/>
<path d="M12.2083 7.85417C11.8286 7.85417 11.5208 7.54636 11.5208 7.16667V0.75C11.5208 0.370305 11.8286 0.0625 12.2083 0.0625H17.25C17.6297 0.0625 17.9375 0.370305 17.9375 0.75V7.16667C17.9375 7.54636 17.6297 7.85417 17.25 7.85417H12.2083ZM12.8958 6.47917H16.5625V1.4375H12.8958V6.47917Z" fill="white"/>
<path d="M0.75 17.9375C0.370304 17.9375 0.0625 17.6297 0.0625 17.25V10.8333C0.0625 10.4536 0.370304 10.1458 0.75 10.1458H5.79167C6.17136 10.1458 6.47917 10.4536 6.47917 10.8333V17.25C6.47917 17.6297 6.17136 17.9375 5.79167 17.9375H0.75ZM1.4375 16.5625H5.10417V11.5208H1.4375V16.5625Z" fill="white"/>
</svg>
