<svg width="24" height="24" viewBox="0 0 24 24" fill="none" xmlns="http://www.w3.org/2000/svg">
<path d="M8.25 5C8.25 4.03351 9.03347 3.25 10 3.25H21C21.9665 3.25 22.75 4.03351 22.75 5V16C22.75 16.9665 21.9665 17.75 21 17.75H10C9.03348 17.75 8.25 16.9665 8.25 16V5ZM10 4.75C9.86192 4.75 9.75 4.86192 9.75 5V16C9.75 16.1381 9.86191 16.25 10 16.25H21C21.1381 16.25 21.25 16.1381 21.25 16V5C21.25 4.86192 21.1381 4.75 21 4.75H10Z" fill="white"/>
<path d="M4.99129 9.4489C5.12983 9.32101 5.31145 9.25 5.5 9.25H9C9.41421 9.25 9.75 9.58579 9.75 10V17C9.75 17.4142 9.41421 17.75 9 17.75H2C1.58579 17.75 1.25 17.4142 1.25 17V13.2308C1.25 13.0214 1.33748 12.8216 1.49129 12.6796L4.99129 9.4489ZM5.79323 10.75L2.75 13.5591V16.25H8.25V10.75H5.79323Z" fill="white"/>
<path d="M4.99999 17.25C5.41421 17.25 5.75 17.5858 5.75 18C5.75 18.6903 6.30966 19.25 7 19.25C7.69033 19.25 8.25 18.6903 8.25 18C8.25 17.5858 8.58578 17.25 9 17.25C9.41421 17.25 9.75 17.5858 9.75 18C9.75 19.5188 8.51876 20.75 7 20.75C5.48123 20.75 4.24999 19.5188 4.24999 18C4.24999 17.5858 4.58578 17.25 4.99999 17.25Z" fill="white"/>
<path d="M16 17.25C16.4142 17.25 16.75 17.5858 16.75 18C16.75 18.6903 17.3097 19.25 18 19.25C18.6903 19.25 19.25 18.6903 19.25 18C19.25 17.5858 19.5858 17.25 20 17.25C20.4142 17.25 20.75 17.5858 20.75 18C20.75 19.5188 19.5188 20.75 18 20.75C16.4812 20.75 15.25 19.5188 15.25 18C15.25 17.5858 15.5858 17.25 16 17.25Z" fill="white"/>
</svg>
