<svg width="24" height="24" viewBox="0 0 24 24" fill="none" xmlns="http://www.w3.org/2000/svg">
<path d="M13.25 6.75C13.25 6.05965 12.6903 5.5 12 5.5C11.3097 5.5 10.75 6.05965 10.75 6.75C10.75 7.44035 11.3097 8 12 8C12.6903 8 13.25 7.44035 13.25 6.75Z" fill="white"/>
<path d="M10.5 10C10.5 9.58579 10.8358 9.25 11.25 9.25H12.25C12.6642 9.25 13 9.58579 13 10V16.25H14C14.4142 16.25 14.75 16.5858 14.75 17C14.75 17.4142 14.4142 17.75 14 17.75H10.5C10.0858 17.75 9.75 17.4142 9.75 17C9.75 16.5858 10.0858 16.25 10.5 16.25H11.5V10.75H11.25C10.8358 10.75 10.5 10.4142 10.5 10Z" fill="white"/>
<path d="M12 1.25C9.0317 1.25 6.34317 2.45406 4.3986 4.3986C2.45407 6.34316 1.25 9.0317 1.25 12C1.25 14.9683 2.45406 17.6568 4.3986 19.6014C6.34317 21.5459 9.0317 22.75 12 22.75C14.9683 22.75 17.6568 21.5459 19.6014 19.6014C21.5459 17.6568 22.75 14.9683 22.75 12C22.75 9.0317 21.5459 6.34317 19.6014 4.3986C17.6568 2.45406 14.9683 1.25 12 1.25ZM5.45926 5.45926C7.13403 3.78452 9.4455 2.75 12 2.75C14.5545 2.75 16.866 3.78452 18.5407 5.45926C20.2155 7.13403 21.25 9.4455 21.25 12C21.25 14.5545 20.2155 16.866 18.5407 18.5407C16.866 20.2155 14.5545 21.25 12 21.25C9.4455 21.25 7.13403 20.2155 5.45926 18.5407C3.78452 16.866 2.75 14.5545 2.75 12C2.75 9.4455 3.78451 7.13404 5.45926 5.45926Z" fill="white"/>
</svg>
