<svg width="22" height="22" viewBox="0 0 22 22" fill="none" xmlns="http://www.w3.org/2000/svg">
<path d="M2.52075 16.0417C2.52075 15.662 2.82856 15.3542 3.20825 15.3542H5.95825C6.33795 15.3542 6.64575 15.662 6.64575 16.0417C6.64575 16.4214 6.33795 16.7292 5.95825 16.7292H3.89575V18.7917C3.89575 19.1714 3.58795 19.4792 3.20825 19.4792C2.82856 19.4792 2.52075 19.1714 2.52075 18.7917V16.0417Z" fill="white"/>
<path d="M16.0416 15.3542C16.4213 15.3542 16.7291 15.662 16.7291 16.0417V18.1042H18.7916C19.1713 18.1042 19.4791 18.412 19.4791 18.7917C19.4791 19.1714 19.1713 19.4792 18.7916 19.4792H16.0416C15.6619 19.4792 15.3541 19.1714 15.3541 18.7917V16.0417C15.3541 15.662 15.6619 15.3542 16.0416 15.3542Z" fill="white"/>
<path d="M18.7916 2.52083C19.1713 2.52083 19.4791 2.82863 19.4791 3.20833V5.95833C19.4791 6.33802 19.1713 6.64583 18.7916 6.64583H16.0416C15.6619 6.64583 15.3541 6.33802 15.3541 5.95833C15.3541 5.57863 15.6619 5.27083 16.0416 5.27083H18.1041V3.20833C18.1041 2.82863 18.4119 2.52083 18.7916 2.52083Z" fill="white"/>
<path d="M2.52075 3.20833C2.52075 2.82863 2.82856 2.52083 3.20825 2.52083H5.95825C6.33795 2.52083 6.64575 2.82863 6.64575 3.20833V5.95833C6.64575 6.33802 6.33795 6.64583 5.95825 6.64583C5.57856 6.64583 5.27075 6.33802 5.27075 5.95833V3.89583H3.20825C2.82856 3.89583 2.52075 3.58802 2.52075 3.20833Z" fill="white"/>
<path d="M6.5321 2.96449C6.74121 3.28142 6.6538 3.70785 6.33687 3.91695C4.03633 5.4348 2.52075 8.04055 2.52075 11C2.52075 11.433 2.55315 11.8579 2.61554 12.2727C2.67202 12.6482 2.41342 12.9984 2.03795 13.0548C1.66248 13.1113 1.31232 12.8527 1.25584 12.4773C1.1833 11.995 1.14575 11.5017 1.14575 11C1.14575 7.55918 2.90981 4.53074 5.57964 2.76925C5.89657 2.56015 6.323 2.64756 6.5321 2.96449Z" fill="white"/>
<path d="M2.96436 15.4678C3.28129 15.2587 3.70773 15.3461 3.91683 15.663C5.43467 17.9636 8.04043 19.4792 10.9999 19.4792C11.4328 19.4792 11.8578 19.4468 12.2726 19.3844C12.6481 19.3279 12.9982 19.5865 13.0547 19.962C13.1112 20.3374 12.8526 20.6876 12.4771 20.7441C11.9949 20.8166 11.5015 20.8542 10.9999 20.8542C7.55905 20.8542 4.53061 19.0901 2.76913 16.4203C2.56002 16.1033 2.64743 15.6769 2.96436 15.4678Z" fill="white"/>
<path d="M19.9619 8.94514C20.3374 8.88866 20.6875 9.14726 20.744 9.52273C20.8165 10.005 20.8541 10.4983 20.8541 11C20.8541 14.4408 19.09 17.4693 16.4202 19.2308C16.1033 19.4399 15.6768 19.3525 15.4677 19.0355C15.2586 18.7186 15.346 18.2922 15.663 18.0831C17.9635 16.5652 19.4791 13.9594 19.4791 11C19.4791 10.567 19.4467 10.142 19.3843 9.72726C19.3278 9.35179 19.5864 9.00162 19.9619 8.94514Z" fill="white"/>
<path d="M10.9999 2.52083C10.5669 2.52083 10.142 2.55323 9.72718 2.61562C9.35171 2.6721 9.00154 2.4135 8.94507 2.03803C8.88859 1.66256 9.14718 1.31239 9.52266 1.25591C10.0049 1.18337 10.4983 1.14583 10.9999 1.14583C14.4407 1.14583 17.4692 2.90989 19.2307 5.57971C19.4398 5.89664 19.3524 6.32307 19.0355 6.53218C18.7185 6.74128 18.2921 6.65387 18.083 6.33695C16.5651 4.0364 13.9594 2.52083 10.9999 2.52083Z" fill="white"/>
</svg>
