<svg width="28" height="28" viewBox="0 0 28 28" fill="none" xmlns="http://www.w3.org/2000/svg">
<path d="M0.666748 13.0001C0.666748 6.1886 6.1886 0.666748 13.0001 0.666748C19.8116 0.666748 25.3334 6.1886 25.3334 13.0001C25.3334 19.8116 19.8116 25.3334 13.0001 25.3334C6.1886 25.3334 0.666748 19.8116 0.666748 13.0001ZM13.0001 2.66675C7.29317 2.66675 2.66675 7.29317 2.66675 13.0001C2.66675 18.707 7.29317 23.3334 13.0001 23.3334C18.707 23.3334 23.3334 18.707 23.3334 13.0001C23.3334 7.29317 18.707 2.66675 13.0001 2.66675Z" fill="#FDDE32"/>
<path d="M8.52173 7.85502C9.66679 6.71004 11.2515 6.00008 13.0001 6.00008C14.7487 6.00008 16.3334 6.71003 17.4784 7.85504C17.8689 8.24557 17.8689 8.87873 17.4784 9.26925C17.0879 9.65978 16.4547 9.65978 16.0642 9.26925C15.2789 8.484 14.197 8.00008 13.0001 8.00008C11.8032 8.00008 10.7212 8.48399 9.9359 9.26928C9.54536 9.65979 8.91219 9.65977 8.52168 9.26923C8.13117 8.87869 8.13119 8.24553 8.52173 7.85502Z" fill="#FDDE32"/>
<path d="M20.4408 20.4408C20.8314 20.0503 21.4645 20.0503 21.8551 20.4408L27.5119 26.0977C27.9024 26.4882 27.9024 27.1214 27.5119 27.5119C27.1214 27.9024 26.4882 27.9024 26.0977 27.5119L20.4408 21.8551C20.0503 21.4645 20.0503 20.8314 20.4408 20.4408Z" fill="#FDDE32"/>
</svg>
