<svg width="22" height="20" viewBox="0 0 22 20" fill="none" xmlns="http://www.w3.org/2000/svg">
<path fill-rule="evenodd" clip-rule="evenodd" d="M0.25 1C0.25 0.585786 0.585786 0.25 1 0.25H21C21.4142 0.25 21.75 0.585786 21.75 1V6.5C21.75 6.91421 21.4142 7.25 21 7.25C20.5858 7.25 20.25 6.91421 20.25 6.5V1.75H1.75V15.25H4.5C4.91421 15.25 5.25 15.5858 5.25 16V17.2865L9.16459 15.3292C9.26873 15.2771 9.38357 15.25 9.5 15.25H11.75C12.1642 15.25 12.5 15.5858 12.5 16C12.5 16.4142 12.1642 16.75 11.75 16.75H9.67705L4.83541 19.1708C4.60292 19.2871 4.32681 19.2746 4.1057 19.138C3.88459 19.0013 3.75 18.7599 3.75 18.5V16.75H1C0.585786 16.75 0.25 16.4142 0.25 16V1Z" fill="white"/>
<path fill-rule="evenodd" clip-rule="evenodd" d="M4.25 5C4.25 4.58579 4.58579 4.25 5 4.25H8C8.41421 4.25 8.75 4.58579 8.75 5C8.75 5.41421 8.41421 5.75 8 5.75H5C4.58579 5.75 4.25 5.41421 4.25 5Z" fill="white"/>
<path fill-rule="evenodd" clip-rule="evenodd" d="M4.25 8C4.25 7.58579 4.58579 7.25 5 7.25H11C11.4142 7.25 11.75 7.58579 11.75 8C11.75 8.41421 11.4142 8.75 11 8.75H5C4.58579 8.75 4.25 8.41421 4.25 8Z" fill="white"/>
<path fill-rule="evenodd" clip-rule="evenodd" d="M21.4749 9.41955C21.7955 9.68185 21.8428 10.1544 21.5805 10.475L17.0805 15.975C16.9538 16.1298 16.7705 16.2276 16.5713 16.2466C16.3721 16.2656 16.1736 16.2043 16.0199 16.0762L13.0199 13.5762C12.7017 13.311 12.6587 12.8381 12.9239 12.5199C13.189 12.2017 13.6619 12.1587 13.9802 12.4239L16.3988 14.4394L20.4195 9.52509C20.6818 9.20451 21.1544 9.15726 21.4749 9.41955Z" fill="white"/>
</svg>
